<?xml version="1.0"?>
<svg id="Laag_1" xmlns="http://www.w3.org/2000/svg" version="1.1" xmlns:serif="http://www.serif.com/" viewBox="0 0 594.41 96.95">
  
  <defs>
    <style>.st0{fill:#ffffff;}</style>
  </defs>
  <g id="Laag_11" data-name="Laag_1">
    <path class="st0" d="M390.93,65.93h3.13v29.72h-73.51v-3.13h7.82V11.19h-7.82v-3.13h40.66v3.13h-9.38v81.33h15.64c3.54,0,6.49-.26,8.83-.78,2.35-.52,4.77-1.61,7.27-3.29,4.9-3.23,7.35-10.74,7.35-22.52h0s0,0,0,0Z"></path>
    <g>
      <path class="st0" d="M459.8,95.13c-2.33.62-5.04.94-8.12.94-6.83,0-11.12-2.04-12.87-6.12-4.17,4.34-10.54,6.5-19.12,6.5-4.58,0-8.35-1.06-11.31-3.19-2.96-2.12-4.44-5.27-4.44-9.44,0-5.58,2.17-9.89,6.5-12.94,4.33-3.04,11.92-5.19,22.75-6.44l5-.62v-6.12c0-7.25-.54-12.12-1.63-14.63-1.08-2.5-3.23-3.75-6.44-3.75s-5.27.44-6.19,1.31c-.92.88-1.25,1.88-1,3,.25,1.13.67,2.6,1.25,4.44.58,1.83.88,3.29.88,4.38,0,2.58-.9,4.77-2.69,6.56-1.79,1.79-3.96,2.69-6.5,2.69s-4.73-.89-6.56-2.69c-1.83-1.79-2.75-3.98-2.75-6.56,0-4.25,2.19-7.89,6.56-10.94,4.37-3.04,10.91-4.56,19.62-4.56s14.91,1.71,18.62,5.12c3.71,3.42,5.56,9.46,5.56,18.12v22.5c0,4.42.54,7.19,1.63,8.31,1.08,1.13,3.08,1.36,6,.69v1.25c-.83.83-2.42,1.56-4.75,2.19h0s0,0,0,0ZM424.8,88.63c1.92,1.71,4.14,2.56,6.69,2.56s4.77-1.25,6.69-3.75v-21.25l-4.5.62c-3.83.5-6.94,1.96-9.31,4.37-2.38,2.42-3.4,5.79-3.06,10.13.42,3.17,1.58,5.6,3.5,7.31h0Z"></path>
      <path class="st0" d="M522.66,91.01c-3.08,2.04-6.08,3.48-9,4.31s-5.77,1.25-8.56,1.25-5.35-.52-7.69-1.56c-2.33-1.04-4.19-2.17-5.56-3.37-1.38-1.21-2.9-2.33-4.56-3.37-1.67-1.04-3.25-1.56-4.75-1.56s-2.81.83-3.94,2.5c-1.13,1.67-1.69,3.75-1.69,6.25h-2.38V14.2h-6.25v-2.5h25v30.75c1.33-2.25,3.52-4.02,6.56-5.31,3.04-1.29,6.23-1.94,9.56-1.94,6.33,0,11.85,2.77,16.56,8.31,4.71,5.54,7.06,13.27,7.06,23.18,0,5.83-.96,10.83-2.87,15-1.92,4.17-4.42,7.27-7.5,9.31h0s0,0,0,0ZM493.29,75.95c0,6.33.71,10.9,2.12,13.69,1.42,2.79,3.69,4.19,6.81,4.19s5.89-2.35,8.31-7.06c2.42-4.71,3.63-11.33,3.63-19.87s-1.27-15.1-3.81-19.69c-2.54-4.58-5.52-6.87-8.94-6.87s-6.13,1.96-8.12,5.88v29.75h0Z"></path>
      <path class="st0" d="M569.91,94.44c8.66,0,13-2.37,13-7.12,0-2.67-1.5-4.85-4.5-6.56-3-1.71-6.62-3.1-10.87-4.19-4.25-1.08-8.44-2.33-12.56-3.75-4.12-1.42-7.54-3.67-10.25-6.75-2.71-3.08-3.81-7.12-3.31-12.12.5-5,3.06-9.12,7.69-12.37,4.62-3.25,10.33-4.87,17.12-4.87s12.27,1.08,16.44,3.25c4.16,2.17,6.5,5.08,7,8.75.33,2.25-.02,4.33-1.06,6.25-1.04,1.92-2.75,2.92-5.13,3-2.38.08-4.33-.54-5.87-1.88-1.54-1.33-2.27-2.87-2.19-4.63.08-1.75.75-3.31,2-4.69,1.25-1.38,1.88-2.48,1.88-3.31,0-1.42-1.35-2.48-4.06-3.19-2.71-.71-5.83-1.06-9.37-1.06s-6.44.79-8.69,2.37c-2.25,1.58-3.37,3.54-3.37,5.88s1.39,4.33,4.19,6c2.79,1.67,6.19,3.02,10.19,4.06,4,1.04,7.98,2.21,11.94,3.5,3.96,1.29,7.33,3.36,10.12,6.19,2.79,2.83,4.19,6.42,4.19,10.75,0,5.75-2.04,10.35-6.13,13.81-4.08,3.46-10.25,5.19-18.5,5.19s-14.93-1.25-20.06-3.75c-5.13-2.5-7.94-5.71-8.44-9.62-.33-2.25.04-4.33,1.13-6.25,1.08-1.92,2.79-2.92,5.13-3,2.33-.08,4.27.54,5.81,1.88,1.54,1.33,2.27,2.87,2.19,4.62-.08,1.75-.75,3.31-2,4.69-1.25,1.38-1.88,2.48-1.88,3.31,0,1.67,1.94,3.02,5.81,4.06s8.02,1.56,12.44,1.56h0s0,0,0,0Z"></path>
    </g>
    <g>
      <path class="st0" d="M89.41,51.29c0,24.81-19.51,44.32-44.71,44.32S0,76.1,0,51.29,19.51,6.85,44.71,6.85s44.71,19.64,44.71,44.45c0,0,0,0,0,0ZM83.47,51.29c0-22.09-16.54-39.28-38.76-39.28S5.95,29.2,5.95,51.29s16.54,39.15,38.76,39.15,38.76-17.18,38.76-39.15Z"></path>
      <path class="st0" d="M105.68,41.48h5.17v8.27c2.45-4.39,7.24-9.43,16.15-9.43,9.43,0,13.44,5.56,14.6,7.37,2.33,3.75,2.58,8.66,2.58,13.31v33.21h-5.17v-33.21c0-3.62-.13-7.62-2.07-10.59-1.16-1.94-4.01-5.17-10.34-5.17-7.24,0-10.98,3.88-12.92,7.37-2.33,4.14-2.84,9.04-2.84,14.21v27.39h-5.17v-52.72h0Z"></path>
      <rect class="st0" x="162.79" width="5.17" height="94.19"></rect>
      <path class="st0" d="M184.5,23.9c0-2.84,2.07-4.78,4.65-4.78s4.65,1.94,4.65,4.78-2.07,4.78-4.65,4.78-4.65-1.94-4.65-4.78ZM191.73,41.48v52.72h-5.17v-52.72s5.17,0,5.17,0Z"></path>
      <path class="st0" d="M210.33,41.48h5.17v8.27c2.45-4.39,7.24-9.43,16.15-9.43,9.43,0,13.44,5.56,14.6,7.37,2.33,3.75,2.58,8.66,2.58,13.31v33.21h-5.17v-33.21c0-3.62-.13-7.62-2.07-10.59-1.16-1.94-4.01-5.17-10.34-5.17-7.24,0-10.98,3.88-12.92,7.37-2.33,4.14-2.84,9.04-2.84,14.21v27.39h-5.17v-52.72h0s0,0,0,0Z"></path>
      <path class="st0" d="M269.51,68.48c0,13.44,9.82,22.22,20.93,22.22,8.53,0,14.99-5.04,18.35-12.02l4.39,2.58c-3.1,5.95-10.08,14.34-23.13,14.34-16.41,0-25.97-12.15-25.97-27.52,0-18.35,12.66-27.78,25.58-27.78,14.21,0,24.94,11.37,24.94,28.17h-45.09ZM309.17,63.57c-1.29-10.47-9.04-18.35-19.51-18.35s-18.35,8.14-19.77,18.35h39.28,0Z"></path>
    </g>
  </g>
</svg>