<?xml version="1.0" encoding="UTF-8" standalone="no"?><!DOCTYPE svg PUBLIC "-//W3C//DTD SVG 1.1//EN" "http://www.w3.org/Graphics/SVG/1.1/DTD/svg11.dtd"><svg width="100%" height="100%" viewBox="0 0 1459 238" version="1.1" xmlns="http://www.w3.org/2000/svg" xmlns:xlink="http://www.w3.org/1999/xlink" xml:space="preserve" xmlns:serif="http://www.serif.com/" style="fill-rule:evenodd;clip-rule:evenodd;stroke-linejoin:round;stroke-miterlimit:2;"><g id="Laag_1"><path d="M961.762,162.669l7.667,0l0,72.833l-180.167,0l0,-7.667l19.171,0l0,-199.333l-19.171,-0l0,-7.667l99.667,0l0,7.667l-23,0l0,199.333l38.333,0c8.683,0 15.904,-0.633 21.654,-1.917c5.754,-1.279 11.696,-3.958 17.825,-8.054c12.013,-7.917 18.017,-26.317 18.017,-55.2l0.004,0.004Z" style="fill:#376eb5;fill-rule:nonzero;"/><g><path d="M1130.554,234.253c-5.721,1.529 -12.358,2.296 -19.912,2.296c-16.75,0 -27.263,-5 -31.55,-15.012c-10.213,10.625 -25.838,15.929 -46.871,15.929c-11.229,0 -20.475,-2.604 -27.721,-7.808c-7.25,-5.208 -10.875,-12.917 -10.875,-23.133c0,-13.679 5.308,-24.246 15.929,-31.704c10.617,-7.45 29.204,-12.712 55.754,-15.775l12.254,-1.529l0,-15.012c0,-17.771 -1.329,-29.717 -3.983,-35.846c-2.658,-6.125 -7.917,-9.192 -15.775,-9.192c-7.858,0 -12.921,1.071 -15.167,3.217c-2.25,2.146 -3.062,4.596 -2.45,7.354c0.608,2.758 1.633,6.383 3.063,10.875c1.425,4.496 2.146,8.071 2.146,10.725c0,6.333 -2.196,11.692 -6.588,16.079c-4.396,4.396 -9.7,6.588 -15.929,6.588c-6.229,0 -11.592,-2.192 -16.079,-6.588c-4.496,-4.392 -6.742,-9.75 -6.742,-16.079c0,-10.417 5.363,-19.35 16.083,-26.808c10.721,-7.454 26.75,-11.183 48.096,-11.183c21.346,0 36.55,4.188 45.642,12.558c9.088,8.379 13.633,23.183 13.633,44.421l0,55.142c0,10.829 1.325,17.617 3.983,20.371c2.654,2.758 7.55,3.325 14.704,1.683l0,3.062c-2.046,2.046 -5.929,3.829 -11.642,5.363l-0.004,0.008Zm-85.775,-15.933c4.696,4.187 10.158,6.279 16.392,6.279c6.233,0 11.688,-3.062 16.392,-9.192l0,-52.075l-11.029,1.529c-9.396,1.229 -17,4.8 -22.821,10.721c-5.825,5.929 -8.325,14.196 -7.508,24.817c1.021,7.762 3.879,13.737 8.579,17.921l-0.004,0Z" style="fill:#376eb5;fill-rule:nonzero;"/><path d="M1284.637,224.14c-7.558,5.008 -14.908,8.533 -22.058,10.571c-7.15,2.038 -14.146,3.062 -20.983,3.062c-6.838,0 -13.121,-1.283 -18.842,-3.829c-5.717,-2.55 -10.263,-5.308 -13.633,-8.271c-3.371,-2.958 -7.096,-5.717 -11.183,-8.271c-4.083,-2.55 -7.962,-3.829 -11.642,-3.829c-3.679,0 -6.892,2.046 -9.646,6.129c-2.758,4.083 -4.133,9.187 -4.133,15.317l-5.821,0l0,-199.125l-15.317,0l0,-6.125l61.267,0l0,75.358c3.263,-5.513 8.625,-9.85 16.079,-13.021c7.454,-3.162 15.267,-4.75 23.438,-4.75c15.517,0 29.05,6.792 40.587,20.371c11.538,13.583 17.308,32.525 17.308,56.825c0,14.3 -2.354,26.55 -7.046,36.758c-4.7,10.217 -10.829,17.821 -18.379,22.825l0.004,0.004Zm-71.988,-36.912c0,15.525 1.733,26.704 5.208,33.546c3.471,6.846 9.037,10.262 16.696,10.262c7.658,0 14.446,-5.767 20.371,-17.308c5.921,-11.538 8.887,-27.771 8.887,-48.704c0,-20.933 -3.117,-37.017 -9.346,-48.25c-6.229,-11.229 -13.529,-16.85 -21.904,-16.85c-8.375,0 -15.013,4.8 -19.908,14.4l0,72.908l-0.004,-0.004Z" style="fill:#376eb5;fill-rule:nonzero;"/><path d="M1400.433,232.565c21.237,0 31.858,-5.821 31.858,-17.458c0,-6.533 -3.675,-11.896 -11.029,-16.083c-7.354,-4.183 -16.237,-7.604 -26.654,-10.262c-10.417,-2.654 -20.679,-5.717 -30.788,-9.192c-10.108,-3.471 -18.483,-8.983 -25.117,-16.542c-6.642,-7.554 -9.346,-17.463 -8.117,-29.717c1.225,-12.254 7.504,-22.362 18.842,-30.329c11.333,-7.967 25.317,-11.946 41.967,-11.946c16.65,0 30.067,2.658 40.283,7.967c10.208,5.312 15.929,12.458 17.154,21.442c0.812,5.513 -0.054,10.621 -2.604,15.317c-2.554,4.7 -6.742,7.154 -12.562,7.354c-5.821,0.208 -10.621,-1.325 -14.396,-4.596c-3.783,-3.262 -5.567,-7.046 -5.362,-11.337c0.204,-4.292 1.837,-8.117 4.904,-11.487c3.067,-3.371 4.596,-6.075 4.596,-8.117c0,-3.471 -3.321,-6.075 -9.958,-7.812c-6.638,-1.733 -14.296,-2.604 -22.975,-2.604c-8.679,0 -15.775,1.942 -21.292,5.821c-5.512,3.883 -8.267,8.683 -8.267,14.4c0,5.717 3.417,10.621 10.263,14.704c6.842,4.083 15.163,7.404 24.967,9.958c9.804,2.554 19.55,5.413 29.254,8.579c9.704,3.167 17.967,8.225 24.812,15.163c6.842,6.946 10.267,15.729 10.267,26.346c0,14.092 -5.008,25.379 -15.013,33.85c-10.008,8.475 -25.121,12.713 -45.342,12.713c-20.221,0 -36.604,-3.058 -49.167,-9.188c-12.562,-6.129 -19.454,-13.988 -20.679,-23.588c-0.817,-5.512 0.1,-10.617 2.758,-15.321c2.654,-4.696 6.842,-7.146 12.562,-7.35c5.712,-0.204 10.463,1.329 14.242,4.596c3.775,3.267 5.562,7.042 5.362,11.333c-0.208,4.287 -1.838,8.117 -4.904,11.492c-3.062,3.371 -4.596,6.079 -4.596,8.117c0,4.083 4.75,7.404 14.246,9.958c9.496,2.554 19.654,3.829 30.479,3.829l0.004,-0.008Z" style="fill:#376eb5;fill-rule:nonzero;"/></g><g><path d="M222.75,126.807c0,60.804 -47.821,108.625 -109.575,108.625c-62.067,0 -109.571,-47.821 -109.571,-108.625c0,-60.804 47.821,-108.938 109.575,-108.938c61.754,0 109.575,48.138 109.575,108.942l-0.004,-0.004Zm-14.567,0c0,-54.154 -40.537,-96.271 -95.004,-96.271c-54.467,0 -95.004,42.117 -95.004,96.271c0,53.837 40.537,95.954 95.004,95.954c54.467,0 95.004,-42.113 95.004,-95.954Z" style="fill-rule:nonzero;"/><path d="M262.633,102.74l12.667,0l0,20.267c6.017,-10.767 17.733,-23.117 39.588,-23.117c23.117,0 32.933,13.621 35.783,18.054c5.7,9.183 6.333,21.217 6.333,32.621l0,81.388l-12.667,0l0,-81.387c0,-8.871 -0.317,-18.683 -5.067,-25.967c-2.85,-4.75 -9.817,-12.671 -25.333,-12.671c-17.733,0 -26.917,9.5 -31.671,18.054c-5.7,10.138 -6.967,22.167 -6.967,34.833l0,67.137l-12.667,0l0,-129.213Z" style="fill-rule:nonzero;"/><rect x="402.596" y="1.086" width="12.667" height="230.863" style="fill-rule:nonzero;"/><path d="M455.796,59.669c0,-6.967 5.067,-11.717 11.4,-11.717c6.333,0 11.4,4.75 11.4,11.717c0,6.967 -5.067,11.717 -11.4,11.717c-6.333,0 -11.4,-4.75 -11.4,-11.717Zm17.733,43.071l0,129.208l-12.667,0l0,-129.208l12.667,-0Z" style="fill-rule:nonzero;"/><path d="M519.125,102.74l12.671,0l0,20.267c6.017,-10.767 17.733,-23.117 39.588,-23.117c23.117,0 32.933,13.621 35.783,18.054c5.7,9.183 6.333,21.217 6.333,32.621l0,81.388l-12.667,0l0,-81.387c0,-8.871 -0.317,-18.683 -5.067,-25.967c-2.85,-4.75 -9.817,-12.671 -25.333,-12.671c-17.733,0 -26.917,9.5 -31.671,18.054c-5.7,10.138 -6.967,22.167 -6.967,34.833l0,67.137l-12.667,0l0,-129.208l-0.004,-0.004Z" style="fill-rule:nonzero;"/><path d="M664.154,168.928c0,32.933 24.067,54.467 51.3,54.467c20.904,0 36.733,-12.35 44.971,-29.45l10.767,6.333c-7.6,14.571 -24.704,35.158 -56.687,35.158c-40.221,0 -63.654,-29.771 -63.654,-67.458c0,-44.967 31.033,-68.087 62.704,-68.087c34.833,0 61.121,27.871 61.121,69.037l-110.521,0Zm97.221,-12.037c-3.167,-25.65 -22.167,-44.967 -47.821,-44.967c-26.288,0 -44.971,19.954 -48.454,44.967l96.275,0Z" style="fill-rule:nonzero;"/></g></g></svg>